# xmcd
#
# Track frame offsets:
#	150
#	1432
#	52372
#	64650
#	100280
#	103586
#	139675
#	157663
#	169011
#	172202
#	179637
#	180440
#	183448
#	185130
#	186186
#	193110
#	194309
#	204239
#	209603
#
# Disc length: 2807 seconds
# Revision: 0
# Processed by: cddbd v1.5.2PL0 Copyright (c) Steve Scherf et al.
# Submitted via: dBpowerAMP V12.0
#
DISCID=1b0af513
DTITLE=Hale Dwoskin - The Inner Circle Retreat 03 CD 09
DYEAR=2007
DGENRE=Speech
TTITLE0=Intro Music
TTITLE1=Wanting Sex
TTITLE2=Slave Consciousness
TTITLE3=Release on Slave Consciousness
TTITLE4=Summary of Release
TTITLE5=If You Are Not That Slave What Are You
TTITLE6=Being Around Your Family
TTITLE7=Do Not Support the System
TTITLE8=Guilt and Shame
TTITLE9=Product Overview
TTITLE10=Live Retreats
TTITLE11=Coach Training
TTITLE12=Participant Gain
TTITLE13=Recommendations
TTITLE14=Give the Mind Something to Do
TTITLE15=If More Comes Up
TTITLE16=How Society Develops
TTITLE17=Sharing the Method
TTITLE18=Concluding Music
EXTD=
EXTT0=
EXTT1=
EXTT2=
EXTT3=
EXTT4=
EXTT5=
EXTT6=
EXTT7=
EXTT8=
EXTT9=
EXTT10=
EXTT11=
EXTT12=
EXTT13=
EXTT14=
EXTT15=
EXTT16=
EXTT17=
EXTT18=
PLAYORDER=
